<?xml version="1.0" encoding="UTF-8"?>
<svg id="Layer_2" data-name="Layer 2" xmlns="http://www.w3.org/2000/svg" viewBox="0 0 552.74 173.95">
  <defs>
    <style>
      .cls-1 {
        font-family: Poppins-Medium, Poppins;
        font-size: 17.49px;
        font-weight: 500;
        letter-spacing: .31em;
      }

      .cls-1, .cls-2 {
        fill: #0d8141;
      }

      .cls-3 {
        fill: #217ec2;
      }

      .cls-4 {
        fill: #fff;
      }

      .cls-5 {
        fill: none;
        stroke: #ec6e31;
        stroke-miterlimit: 10;
        stroke-width: 4px;
      }
    </style>
  </defs>
  <g id="Layer_3" data-name="Layer 3">
    <g id="kangroLogo">
      <g id="frontkanggo">
        <g id="box">
          <g>
            <path class="cls-2" d="M185.73,87.82l-25.53-15.13c-.88-.52-1.94-.61-2.89-.25l-27.73,10.58c-1.2.46-2.03,1.56-2.14,2.83l-2.65,31.02c-.11,1.28.52,2.5,1.62,3.15l26.53,15.72c.12.07.26.12.4.13s.28,0,.42-.06l28.81-10.99c1.2-.46,2.03-1.56,2.14-2.83l2.65-31.02c.11-1.28-.52-2.5-1.62-3.15ZM159.63,74.54l20.49,12.14c1.73,1.02,1.51,3.59-.37,4.3l-3.47,1.32s-.1-.08-.15-.11l-21.31-12.63c-1.73-1.02-1.51-3.59.37-4.3l2.36-.9c.68-.26,1.45-.2,2.08.18ZM149.34,78.5l20.45,12.12c1.73,1.02,1.51,3.59-.37,4.3h0c-.68.26-1.45.2-2.08-.18l-20.45-12.12c-1.72-1.02-1.51-3.58.36-4.3h0c.68-.26,1.45-.2,2.08.18ZM174.22,98.79l-.38,4.5c-.08.92-.67,1.71-1.53,2.04l-.37.14c-1.65.63-3.39-.68-3.24-2.44l.38-4.5c.08-.92.67-1.71,1.53-2.04l.37-.14c1.65-.63,3.39.68,3.24,2.44ZM182.75,122.75l-24.7,9.42c-1.65.63-3.39-.68-3.24-2.44l2.28-26.64c.08-.92.67-1.71,1.53-2.04l5.34-2.04c.48-.19.73-.73.54-1.21-.19-.48-.73-.73-1.21-.54l-5.79,2.21c-.68.26-1.45.2-2.08-.18l-1.49-.89c-.45-.26-1.02-.12-1.29.33s-.12,1.02.33,1.29l1.08.64c.79.47,1.24,1.35,1.17,2.27l-2.28,26.64c-.15,1.76-2.09,2.76-3.61,1.86l-21.44-12.71c-.79-.47-1.24-1.35-1.17-2.27l2.28-26.64c.15-1.76,2.09-2.76,3.61-1.86l16.53,9.8c.13.07.26.12.4.13.35.03.7-.14.89-.46.26-.45.12-1.02-.33-1.29l-15.16-8.99c-1.73-1.02-1.51-3.59.37-4.3l3.96-1.51c.68-.26,1.45-.2,2.08.18l24.67,14.62,1.18,2.29-.83,9.73c-.03.32.11.64.37.83.14.11.31.17.49.19.14.01.28,0,.41-.06l5.89-2.25c1.2-.46,2.03-1.56,2.14-2.83l.71-8.3c.08-.92.67-1.71,1.53-2.04l4.02-1.53c1.65-.63,3.39.68,3.24,2.44l-2.41,28.14h0Z"/>
            <path class="cls-2" d="M134.62,114.98l-4.08-2.42c-.45-.26-1.02-.12-1.29.33s-.12,1.02.33,1.29l4.08,2.42c.13.07.26.12.4.13.35.03.7-.14.89-.46.26-.45.12-1.02-.33-1.29Z"/>
            <path class="cls-2" d="M138.76,112.76l-7.83-4.64c-.45-.26-1.02-.12-1.29.33-.26.45-.12,1.02.33,1.29l7.83,4.64c.13.07.26.12.4.13.35.03.7-.14.89-.46.26-.45.12-1.02-.33-1.29Z"/>
          </g>
        </g>
        <text class="cls-1" transform="translate(219.08 162.92)"><tspan x="0" y="0">YOUR MOVE MATTERS</tspan></text>
        <line class="cls-5" x1="24.39" y1="142.77" x2="552.74" y2="142.77"/>
        <path id="Kangaroo" class="cls-3" d="M198.49,1.26s-8.38,23.44-23.85,25.31-28.4-12.27-52.71-9.33c-24.31,2.94-36.51,13.38-49.04,39.57C60.36,83,32.82,133.42,0,121.69c0,0,5.76,10.52,19.02,8.91s48.97-21.62,64.05-63.81l14.6,9.45-12.27,28.4s-6.63.8-8.31,5.49c-1.68,4.69-.87,11.32-.87,11.32l1.07,8.84s-.87,11.32-6.97,16.54c-6.1,5.22,3.81,12.99,9.91,7.77,0,0,9.98-10.18,9.45-14.6l-1.34-11.05s-.8-6.63,6.97-16.54,19.7-22.57,19.7-22.57c0,0,20.77-13.72,19.7-22.57,0,0,8.04-7.7,22.1-2.67l1.6,13.26s-1.41,6.9-7.77,9.91c0,0,.53,4.42,4.96,3.89,4.42-.53,12.19-10.45,12.19-10.45l-.8-6.63s.87-11.32,4.76-16.27l6.63-.8s14.67-8.5,17.49-22.3l8.84-1.07s9.64,5.56,11.59,3.08l3.89-4.96s1.94-2.48-.53-4.42c-2.48-1.94-7.17-3.62-7.17-3.62,0,0,1.68-4.69-3.01-6.36-4.69-1.68-7.17-3.62-7.17-3.62,0,0-.53-4.42,3.89-4.96,0,0,1.68-4.69-3.28-8.57,0,0-2.48-1.94-4.42.53Z"/>
        <g>
          <path class="cls-2" d="M269.4,24.93l-22.26,32.2-2.88,15.89h-11.71l2.88-15.89-11.03-32.2h13.29l5.75,20.07,12.81-20.07h13.15Z"/>
          <path class="cls-2" d="M310.78,64.52h-17.95l-4.38,8.49h-12.26l25.89-48.09h13.56l8.9,48.09h-12.4l-1.37-8.49ZM309.41,55.62l-2.81-17.81-9.18,17.81h11.99Z"/>
          <path class="cls-2" d="M383.05,28.32c2.6,2.26,3.91,5.2,3.91,8.8,0,1.05-.09,2.03-.27,2.95-.55,3.2-1.94,6.05-4.18,8.56-2.24,2.51-5.23,4.29-8.97,5.34l7.74,19.04h-13.22l-6.78-18.15h-2.81l-3.22,18.15h-11.71l8.49-48.09h19.66c4.98,0,8.77,1.13,11.37,3.39ZM374.83,39.11c0-1.46-.47-2.59-1.4-3.39-.94-.8-2.32-1.2-4.14-1.2h-7.26l-2.12,12.06h7.26c2.15,0,3.85-.52,5.1-1.58,1.26-1.05,2.07-2.53,2.43-4.45.09-.73.14-1.21.14-1.44Z"/>
          <path class="cls-2" d="M441.42,28.32c2.6,2.26,3.91,5.2,3.91,8.8,0,1.05-.09,2.03-.27,2.95-.55,3.2-1.94,6.05-4.18,8.56-2.24,2.51-5.23,4.29-8.97,5.34l7.74,19.04h-13.22l-6.78-18.15h-2.81l-3.22,18.15h-11.71l8.49-48.09h19.66c4.98,0,8.77,1.13,11.37,3.39ZM433.2,39.11c0-1.46-.47-2.59-1.4-3.39-.94-.8-2.32-1.2-4.14-1.2h-7.26l-2.12,12.06h7.26c2.15,0,3.85-.52,5.1-1.58,1.26-1.05,2.07-2.53,2.43-4.45.09-.73.14-1.21.14-1.44Z"/>
          <path class="cls-2" d="M491.7,64.52h-17.95l-4.38,8.49h-12.26l25.89-48.09h13.56l8.91,48.09h-12.4l-1.37-8.49ZM490.33,55.62l-2.81-17.81-9.18,17.81h11.99Z"/>
          <path class="cls-3" d="M248.37,84.35l-8.49,48.09h-11.71l5.14-28.84-15.89,28.84h-9.45l-5.75-28.98-5.07,28.98h-11.71l8.49-48.09h13.84l7.67,33.29,19.18-33.29h13.77Z"/>
          <path class="cls-3" d="M274.17,130.39c-3.08-1.69-5.47-4.06-7.16-7.12-1.69-3.06-2.53-6.58-2.53-10.55,0-5.62,1.21-10.63,3.63-15.04,2.42-4.41,5.79-7.84,10.1-10.31,4.32-2.47,9.21-3.7,14.69-3.7,4.11,0,7.72.83,10.82,2.5,3.11,1.67,5.5,4.02,7.19,7.06,1.69,3.04,2.54,6.52,2.54,10.45,0,5.62-1.21,10.65-3.63,15.1-2.42,4.45-5.8,7.92-10.14,10.41-4.34,2.49-9.27,3.73-14.8,3.73-4.06,0-7.64-.84-10.72-2.53ZM294.61,119.77c2.28-1.55,4.05-3.64,5.31-6.27,1.25-2.63,1.88-5.47,1.88-8.53,0-3.29-.91-5.87-2.74-7.74-1.83-1.87-4.38-2.81-7.67-2.81-3.01,0-5.67.78-7.98,2.33-2.31,1.55-4.09,3.62-5.34,6.2-1.26,2.58-1.88,5.42-1.88,8.53,0,3.29.91,5.88,2.74,7.77,1.83,1.9,4.41,2.84,7.74,2.84,3.01,0,5.66-.78,7.95-2.33Z"/>
          <path class="cls-3" d="M346.88,84.35l5.55,36.31,18.29-36.31h12.47l-25.55,48.09h-14.66l-8.56-48.09h12.47Z"/>
          <path class="cls-3" d="M411.83,93.6l-1.71,10h15.69l-1.58,8.84h-15.69l-1.92,10.75h17.74l-1.64,9.25h-29.46l8.49-48.09h29.46l-1.64,9.25h-17.74Z"/>
          <path class="cls-3" d="M483.55,87.74c2.6,2.26,3.91,5.2,3.91,8.8,0,1.05-.09,2.03-.27,2.95-.55,3.2-1.94,6.05-4.18,8.56-2.24,2.51-5.23,4.29-8.97,5.34l7.74,19.04h-13.22l-6.78-18.15h-2.81l-3.22,18.15h-11.71l8.49-48.09h19.66c4.98,0,8.77,1.13,11.37,3.39ZM475.33,98.53c0-1.46-.47-2.59-1.4-3.39-.94-.8-2.32-1.2-4.14-1.2h-7.26l-2.12,12.06h7.26c2.15,0,3.85-.52,5.1-1.58,1.26-1.05,2.07-2.53,2.43-4.45.09-.73.14-1.21.14-1.44Z"/>
          <path class="cls-3" d="M508.79,129.53c-3.27-2.26-4.9-5.47-4.9-9.62,0-.41.04-1.03.14-1.85h12.19c-.14,1.74.27,3.11,1.23,4.11.96,1,2.42,1.51,4.38,1.51,1.78,0,3.19-.39,4.21-1.16s1.54-1.87,1.54-3.29-.65-2.65-1.95-3.56c-1.3-.91-3.32-1.94-6.06-3.08-2.65-1.1-4.81-2.13-6.47-3.12-1.67-.98-3.12-2.32-4.35-4.01-1.23-1.69-1.85-3.81-1.85-6.37-.05-3.15.73-5.89,2.33-8.22s3.81-4.11,6.65-5.34c2.83-1.23,6.07-1.85,9.73-1.85,3.29,0,6.21.51,8.77,1.54,2.56,1.03,4.54,2.51,5.96,4.45,1.42,1.94,2.12,4.24,2.12,6.88,0,.69-.02,1.19-.07,1.51h-12.47c.04-.18.07-.46.07-.82,0-1.28-.45-2.32-1.34-3.12-.89-.8-2.11-1.2-3.66-1.2-1.64,0-2.98.4-4.01,1.2-1.03.8-1.54,1.88-1.54,3.25s.64,2.52,1.92,3.46c1.28.94,3.26,2.02,5.96,3.25,2.69,1.23,4.9,2.38,6.61,3.42,1.71,1.05,3.19,2.46,4.42,4.21,1.23,1.76,1.85,3.92,1.85,6.47,0,2.83-.75,5.37-2.26,7.6-1.51,2.24-3.68,3.98-6.51,5.24-2.83,1.26-6.14,1.88-9.93,1.88-5.21,0-9.44-1.13-12.71-3.39Z"/>
        </g>
        <circle class="cls-4" cx="204.3" cy="22.1" r="1.74"/>
      </g>
    </g>
  </g>
</svg>